<?xml version="1.0" encoding="UTF-8"?>
<svg id="Layer_1" data-name="Layer 1" xmlns="http://www.w3.org/2000/svg" viewBox="0 0 396.13 396.13">
  <path d="M289.94,203.56c-13.99-.11-28.01.08-42,0v-12.38c0-2.25-2.15-8.73-2.99-11.26-1.52-4.61-4.72-8.02-3.76-13.11h12.75v-12h23.25v-23.62l1.12-1.12h23.62v12c8.24.03,16.51-.04,24.75,0,.04,8.24.02,16.51,0,24.75-4.24-.04-8.51.03-12.75,0v-12h-35.62l-1.12,1.12v21c0,.46.6,1.15,0,1.88h12.75v-10.88l1.12-1.12h10.88v24.75h-10.88c-2.01,2.95-1.09,8.23-1.12,12Z"/>
  <path d="M326.69,166.81c3.99.04,8.01-.03,12,0v61.5c3.99.03,8.01-.04,12,0,0,3.99-.02,8.01,0,12-7.98.06-16.02.08-24,0-.04-8.24.03-16.51,0-24.75h-12.75v-10.88l1.12-1.12h11.62c.02-12.24-.03-24.51,0-36.75Z"/>
  <path d="M301.94,228.31c3.99.05,8.01-.04,12,0v10.88c3.19,2.02,8.75,1.09,12.75,1.12.02,3.99-.01,8.01,0,12-3.98,0-9.58-.87-12.75,1.12v11.62c4.24-.02,8.51.03,12.75,0,.05,7.75-.31,15.56.33,23.3.88,1.26,9.48.67,11.67.7-.06,8.24.05,16.51,0,24.75h-12v23.62c2.95,2.01,8.23,1.09,12,1.12-.04,3.99.03,8.01,0,12h-12v10.88l1.12,1.12h10.88v12.75h-35.62l-1.01-1.24c.2-3.59-1.25-8.65,1.01-11.51h10.88v-12h-10.88l-1.12-1.12v-23.62h-10.88l-1.12,1.12v35.62c-4.24.02-8.51-.03-12.75,0,.03,4.24-.02,8.51,0,12.75h-36v-12.75c11.99-.06,24.01.08,36,0-.02-3.99.02-8.01,0-12h-10.88c-2.82-3.12.66-7.26-1.07-10.78l1.07-1.22h10.88v-12.75c-7.74.04-15.51-.05-23.25,0-.07,4.02.92,9.54-1.12,12.75h-11.62v-12.75c4.24-.02,8.51.03,12.75,0,.07-3.99-.05-8.01,0-12h11.25v-12h-11.25v-10.88c0-.25-.99-1.14-.75-1.88h-12v-12c4.24.03,8.51-.04,12.75,0,.04,4.02-.42,8.01,0,12h11.25v-12c-3.74-.02-7.51.03-11.25,0-.04-3.37-.3-6.72,0-10.13l-.7-1.54c-7.99-.64-16.05-.28-24.05-.33-.06,12.24.04,24.51,0,36.75h10.88c1.82,2.62,1.84,9.29,0,12h-10.88v10.88l-1.12,1.12h-10.88c-.02,4.24.03,8.51,0,12.75,3.99.03,8.01-.02,12,0v10.88c-2.95,2.01-8.23,1.08-12,1.12,0,3.99-.03,8.01,0,12,3.99.03,8.01-.02,12,0v11.62l-1.12,1.12h-10.88c-.02-4.24.03-8.51,0-12.75-4.24-.03-8.51.03-12.75,0-.07,4.02.92,9.54-1.12,12.75h-22.88v-24.75h12v12c3.99.02,8.01-.03,12,0,.07-3.99-.05-8.01,0-12,4.24-.03,8.51.05,12.75,0,0-3.99-.03-8.01,0-12-8.24-.06-16.51.05-24.75,0v-24.75h-12v23.62l-1.12,1.12h-11.62v10.88c-2.96,2.02-8.23,1.07-12,1.12-.04,3.77.89,9.05-1.12,12h-10.88v-12c3.99-.04,8.01.05,12,0,.09-8.24-.06-16.51,0-24.75h-36.75v-12h10.88l1.12-1.12v-10.88c4.24-.03,8.51.04,12.75,0,.03,3.99-.02,8.01,0,12h24v-12h23.62c2-3.17,1.12-8.77,1.12-12.75,3.77-.04,9.05.89,12-1.12v-10.88h11.62c2.01-2.95,1.08-8.23,1.12-12-4.24-.03-8.51.02-12.75,0v-12.75h12.75c-.03,4.24.05,8.51,0,12.75,3.99.03,8.01-.02,12,0,.04-8.24-.03-16.51,0-24.75h12v12c8.24.03,16.51-.04,24.75,0,0,3.29-.74,8.39-.42,11.17.09.74-.11,1.06.79,1.58h10.88c.04-3.38-.06-6.77,0-10.16.02-1.07.75-2.2.75-2.59,3.99.02,8.01-.03,12,0-.02,3.95-.85,9.6,1.12,12.75h10.88v-12.75c-3.99-.02-8.01.03-12,0,.02-3.76-.87-9.06,1.12-12h10.88c.02-3.99-.03-8.01,0-12ZM313.94,277.06h-36.75v36.75h36.75v-36.75ZM217.19,301.81h-12.75v12h11.62l1.12-1.12v-10.88Z"/>
  <path d="M289.94,203.56c3.99.03,8.01-.02,12,0-.05,8.24.06,16.52,0,24.75-2.19-.03-10.8.55-11.67-.7-.54-7.98-.41-16.06-.33-24.05Z"/>
  <path d="M70.19,228.31c-8.24-.06-16.51.05-24.75,0v-12.75h24.75c-.02,4.24.03,8.51,0,12.75,3.99.03,8.01-.02,12,0,0,7.99-.02,16.01,0,24,3.99.02,8.01-.03,12,0-.03,4.24-.03,8.51,0,12.75-3.99.03-8.01-.01-12,0-.03,3.99.02,8.01,0,12h-24.75v-12c8.24-.02,16.51.02,24.75,0,.03-4.24,0-8.51,0-12.75-12.24-.06-24.51.06-36.75,0-.04,4.24.03,8.51,0,12.75-3.99.02-8.01-.04-12,0-.03,3.99.02,8.01,0,12h-12.75v-12c4.24-.03,8.51.04,12.75,0,.03-4.24.03-8.51,0-12.75-4.24-.03-8.51.02-12.75,0v-12h12.75c.02,3.99-.03,8.01,0,12,3.99.03,8.01-.02,12,0,.04-3.99-.03-8.01,0-12h24.75c.02-3.99-.02-8.01,0-12Z"/>
  <path d="M265.94,252.31c0-1.5-1.16-4,.04-6.35l-.04-17.65h11.25c.02,6.88-.01,13.79-.03,20.68,0,1.39.78,2.83.78,3.32-3.99-.02-8.01.02-12,0Z"/>
  <path d="M94.19,252.31c.03-3.99-.02-8.01,0-12h24.75v24.75h12v12c4.24.02,8.51-.03,12.75,0-.02,3.99-.02,8.01,0,12-8.24-.04-16.51.03-24.75,0v-12h-24.75c-.02-3.99.03-8.01,0-12,4.24-.03,8.51.02,12.75,0v-12.75c-4.24-.02-8.51.03-12.75,0Z"/>
  <path d="M143.69,277.06c.04-8.24-.03-16.51,0-24.75h24c-.02,4.24.03,8.51,0,12.75-3.99.02-8.01-.02-12,0-.02,3.99.04,8.01,0,12-3.99.03-8.01.03-12,0Z"/>
  <path d="M326.69,252.31c3.99,0,8.01,0,12,0v12.75c-3.99.02-8.01-.02-12,0-.02-4.24.02-8.51,0-12.75Z"/>
  <path d="M167.69,265.06c4.24-.03,8.51.02,12.75,0v12h12c0,3.99,0,8.01,0,12-12.23.13-24.52.03-36.75,0,.03-3.99-.03-8.01,0-12,3.99-.03,8.01.02,12,0,.01-3.99-.03-8.01,0-12Z"/>
  <path d="M338.69,289.06c.03-3.99-.02-8.01,0-12h36.75v36.75h-12c.02,8.24-.03,16.51,0,24.75,3.99.03,8.01-.02,12,0v12c-3.99.03-8.01-.04-12,0,.04,3.77-.89,9.05,1.12,12h10.88v12.75h-23.62l-1.12-1.12v-23.62c4.24-.03,8.51.04,12.75,0-.04-3.99.01-8.01,0-12-8.24-.06-16.51.09-24.75,0,.04-4.24-.03-8.51,0-12.75h12v-36.75c-3.99-.04-8.01.05-12,0Z"/>
  <path d="M155.69,289.06c-.03,4.24.02,8.51,0,12.75-3.99.02-8.01-.04-12,0-.03-4.24.02-8.51,0-12.75,3.99.02,8.01,0,12,0Z"/>
  <path d="M326.69,130.06c-4.24-.04-8.51.03-12.75,0v-10.88l1.12-1.12h11.62c.02,3.99-.03,8.01,0,12,3.99.04,8.01-.03,12,0,.02,3.99-.04,8.01,0,12-3.99.02-8.01.02-12,0-.02-3.99.03-8.01,0-12Z"/>
  <path d="M363.44,130.06c-4.24-.04-8.51.03-12.75,0v-10.88l1.12-1.12h11.62c0,3.99,0,8.01,0,12,3.99.04,8.01-.03,12,0v24.75h-10.88l-1.12,1.12v10.88h12v36.75h-12v12h12v36.75h-12v12.75h-12.75c-.03-8.24.04-16.51,0-24.75,4.24-.03,8.51.02,12.75,0v-12c-4.24-.03-8.51.04-12.75,0,.02-12.24-.01-24.51,0-36.75h12.75v-12.75h-12.75v-24h-12c-.03-4.24.04-8.51,0-12.75,8.24-.04,16.51.03,24.75,0v-12Z"/>
  <path d="M57.44,130.06c-3.99-.03-8.01.02-12,0v-12h12c.02,3.99-.03,8.01,0,12,4.24.03,8.51.03,12.75,0,.03-3.76-.88-9.05,1.12-12h10.88v12c-3.99.02-8.01-.03-12,0-.04,3.99.03,8.01,0,12h12v12.75h-12c-.04,7.99.06,16.01,0,24,7.99.06,16.01-.05,24,0-.03,4.24-.03,8.51,0,12.75-3.99.03-8.01-.02-12,0v12c-16.24.08-32.51-.11-48.75,0-.04,8.24.03,16.51,0,24.75h-12.75v-24.75c4.24-.02,8.51.03,12.75,0,.04-8.24-.03-16.51,0-24.75h12v12.75h24.75c.02-4.24-.03-8.51,0-12.75-4.24-.03-8.51.02-12.75,0v-12h-12c-.03-3.99.04-8.01,0-12-8.24.06-16.51-.05-24.75,0v-12.75h24.75c.03,4.24-.04,8.51,0,12.75,3.99-.03,8.01.02,12,0-.05-8.24.06-16.52,0-24.75Z"/>
  <path d="M229.19,93.31c-.04,8.24.03,16.51,0,24.75-3.99.01-8.01-.03-12,0,.02-8.24-.01-16.51,0-24.75,3.99.03,8.01-.03,12,0Z"/>
  <path d="M180.44,68.56c-.04-6.39-.75-15.39-.04-21.41.13-1.09.09-1.93,1.16-2.59h10.88v-12h23.62l1.12-1.12v-10.88h35.62l1.12,1.12v22.5c-3.29,1.96-8.69.4-12.75,1.12v-12.75h-12v12c3.81.33,8.87-.82,12,1.12v10.88h24l.75,12h11.25v36.75c-3.99-.02-8.01.03-12,0l-.1-11.91c-3.5.24-8.39-1.22-11.15,1.03v10.88c3.74.02,7.51-.03,11.25,0l.75,12.75h-12.75c1.55-4.02.72-8.62,0-12.75h-12v-10.88c-2.95-2.01-8.24-1.09-12-1.12.05-10.15,1.16-24.58.04-34.16-.13-1.09-.09-1.93-1.16-2.59h-10.88v-10.88c0-2.27-10.8.51-12.75-.38v11.25h11.62l1.12,1.12v10.88h-11.62l-1.12,1.12v11.62c-3.99,0-8.01,0-12,0-.07-3.99.34-8.08-.33-12.05-.87-1.25-9.49-.68-11.67-.7ZM265.19,68.56h-24v12.75h24c.27-4.52,1.18-8.22,0-12.75Z"/>
  <path d="M106.94,191.56c-.03,3.99.02,8.01,0,12h-12.75c-.02-3.99.03-8.01,0-12,4.24-.03,8.51.03,12.75,0Z"/>
  <path d="M143.69,56.56c.03-3.76-.88-9.05,1.12-12h10.88v-12h12v24c-7.99.06-16.01-.08-24,0-.04,3.99.03,8.01,0,12,12.24.09,24.52-.13,36.75,0,.03,4.24-.02,8.51,0,12.75h12c.07,3.98-.05,8.01,0,12h10.88l1.12,1.12v23.62c4.24-.02,8.51.03,12.75,0-.02,7.99.01,16.01,0,24-8.24.04-16.52-.07-24.75,0-.05,1.63.5,5.6-.7,6.42l-11.29,2.58v-9c3.98-.02,8.01.03,12,0,.18-6.11.72-15.63.04-21.41-.13-1.09-.09-1.93-1.16-2.59h-10.88v12h-24.75c-.02,3.99.03,8.01,0,12,3.99.03,8.01-.02,12,0v16.88l-7.52,7.49c-1.44.73-2.99.31-4.48.39-.18,4.46.09,7.8-2.37,11.87l-9.63.13v-12c3.97-.16,8.03.22,12,0,.33-8.2-.06-16.54,0-24.75-8.24-.06-16.51.05-24.75,0v12.75h-12v36.75c-3.99.02-8.01-.03-12,0,.03-4.24-.02-8.51,0-12.75-4.24-.02-8.51.03-12.75,0,.03-3.99-.02-8.01,0-12h12.75v-12h-12.75v-12.75h12.75c0-3.99,0-8.01,0-12-4.24-.03-8.51.02-12.75,0v-10.88l1.12-1.12h11.62v12c7.99.06,16.01-.04,24,0-.07-8.24.08-16.52,0-24.75-3.99-.02-8.01.02-12,0v-10.88c2.73-2.14,7.87-1.06,11.3-.8,1.25.87.68,9.49.7,11.67,4.24.03,8.51-.02,12.75,0v-22.88l-1.12-1.12h-23.62v-11.62l1.12-1.12h10.88v-10.88c3.19-2.02,8.75-1.09,12.75-1.12ZM167.69,105.31v-10.88c-2.62-1.82-9.29-1.84-12,0v10.88h12ZM192.44,105.31v-10.88c-2.71-1.84-9.38-1.82-12,0v10.88h12Z"/>
  <path d="M143.69,215.56c-4.24-.1-8.51.07-12.75,0v12.75h-12v-24.75h12v-12h12.75c.02,7.99-.02,16.01,0,24,3.08.07,6.19-.17,9.27.1,2.13,2.25,2.89,5.35,2.55,8.32-.28,2.35-2.89,12.84-3.71,15.07-.22.59-.41,1.03-1.08,1.17l-7.03.1c-.01-8.24.03-16.51,0-24.75Z"/>
  <polygon points="265.19 130.06 265.94 142.06 241.19 142.06 241.19 130.06 265.19 130.06"/>
  <g>
    <path d="M208.08,159.42l.1,6.64c-24.49-7.06-47.32,14.7-40.72,39.6.78,2.93,4.39,8.46,4.52,9.62.23,2.02-3.59,10.77-2.8,11.53,4,.07,7.56-2.57,11.61-2.29,3.09.21,8.18,3.79,12.19,4.37,23.59,3.41,42.91-16.69,37.04-39.89.43-1.82,5.05-1.19,6.57-1.1,6.1,30.32-19.52,53.97-49.42,46.04-2.77-.73-4.92-2.72-7.83-2.66-5.45.12-13.22,4.72-19.16,4.53-1.04-1.04,4.68-16.02,4.55-19.11s-3.79-8.78-4.36-12.96c-3.87-28.58,19.61-50.51,47.7-44.32Z"/>
    <path d="M188.5,179.76c1.33,1.27,2.26,6.71,3.78,8.55l-2.87,6.6c.36,3.33,10.03,11.07,13.33,11.55,3.02.44,4.34-4.22,5.22-4.43,2.16-.52,10.56,3.13,10.69,5.62.19,3.75-3.78,7.11-7.26,7.74-12.05,2.17-33.15-15.91-32.48-27.92.23-4.23,5.44-11.66,9.59-7.7Z"/>
    <path d="M227.76,168.24l8.92.84-.09,4.76c-.73,2.28-6.87.85-8.9,1.22l-.32,9.05c-.8,1.14-5.74,1.31-6.32-.53l-.43-7.82-8.68-.7v-6.01s8.9-.85,8.9-.85l.1-8.9,6.43.71.4,8.22Z"/>
  </g>
  <path d="M277.19,32.56v24h-11.25c-.16-6.12.2-12.28.04-18.41-.03-1.18-1.55-5.59.34-5.59h10.88Z"/>
  <rect x="94.19" y="215.56" width="12.75" height="12.75"/>
  <polygon points="33.44 118.06 33.44 130.06 20.69 130.06 20.69 119.19 21.81 118.06 33.44 118.06"/>
  <path d="M130.94,362.56v11.62c-2.71,1.84-9.38,1.82-12,0v-11.62h12Z"/>
  <path d="M130.94,32.56v11.62c-2.84,1.48-9.32,1.99-12,0v-11.62h12Z"/>
  <rect x="118.94" y="338.56" width="12" height="12"/>
  <path d="M192.44,20.56v10.88c-2.71,1.84-9.38,1.82-12,0v-10.88h12Z"/>
  <polygon points="180.44 252.31 180.82 242.55 192.34 245.67 192.44 252.31 180.44 252.31"/>
  <polygon points="301.94 289.06 301.94 301.81 291.06 301.81 289.94 300.69 289.94 289.06 301.94 289.06"/>
  <g>
    <path d="M289.94,20.56h85.5v84.75h-85.5V20.56ZM363.44,32.56h-61.5v60.75h61.5v-60.75Z"/>
    <rect x="313.94" y="44.56" width="36.75" height="36.75"/>
  </g>
  <g>
    <path d="M106.94,289.06v86.25H20.69v-86.25h86.25ZM33.44,301.81v60.75h60.75v-60.75h-60.75Z"/>
    <rect x="45.44" y="313.81" width="36.75" height="36.75"/>
  </g>
  <g>
    <path d="M20.69,20.56h86.25v84.75H20.69V20.56ZM94.19,32.56h-60.75v60.75h60.75v-60.75Z"/>
    <rect x="45.44" y="44.52" width="36.75" height="36.79"/>
  </g>
</svg>